<mxfile host="app.diagrams.net" agent="Mozilla/5.0 (X11; Linux x86_64) AppleWebKit/537.36 (KHTML, like Gecko) Chrome/133.0.0.0 Safari/537.36" version="26.0.4">
  <diagram name="Page-1" id="eCXDCtoOADZkRkpfSewi">
    <mxGraphModel dx="1018" dy="505" grid="1" gridSize="10" guides="1" tooltips="1" connect="1" arrows="1" fold="1" page="1" pageScale="1" pageWidth="4681" pageHeight="3300" math="0" shadow="0">
      <root>
        <mxCell id="0" />
        <mxCell id="1" parent="0" />
        <mxCell id="BXB8UgXBpc2WrxSVJNMK-1" value="Doctor" style="shape=umlActor;verticalLabelPosition=bottom;verticalAlign=top;html=1;outlineConnect=0;" vertex="1" parent="1">
          <mxGeometry x="150" y="370" width="30" height="60" as="geometry" />
        </mxCell>
        <mxCell id="BXB8UgXBpc2WrxSVJNMK-2" value="Receptionist" style="shape=umlActor;verticalLabelPosition=bottom;verticalAlign=top;html=1;outlineConnect=0;" vertex="1" parent="1">
          <mxGeometry x="150" y="580" width="30" height="60" as="geometry" />
        </mxCell>
        <mxCell id="BXB8UgXBpc2WrxSVJNMK-7" value="Client" style="shape=umlActor;verticalLabelPosition=bottom;verticalAlign=top;html=1;outlineConnect=0;" vertex="1" parent="1">
          <mxGeometry x="980" y="750" width="30" height="60" as="geometry" />
        </mxCell>
        <mxCell id="BXB8UgXBpc2WrxSVJNMK-8" value="Auth" style="ellipse;whiteSpace=wrap;html=1;" vertex="1" parent="1">
          <mxGeometry x="450" y="200" width="90" height="60" as="geometry" />
        </mxCell>
        <mxCell id="BXB8UgXBpc2WrxSVJNMK-9" value="&lt;div&gt;???&lt;/div&gt;Singup" style="ellipse;whiteSpace=wrap;html=1;fillColor=#f8cecc;strokeColor=#b85450;" vertex="1" parent="1">
          <mxGeometry x="450" y="270" width="90" height="60" as="geometry" />
        </mxCell>
        <mxCell id="BXB8UgXBpc2WrxSVJNMK-11" value="" style="endArrow=none;html=1;rounded=1;entryX=0;entryY=0.5;entryDx=0;entryDy=0;exitX=0.5;exitY=0.5;exitDx=0;exitDy=0;exitPerimeter=0;endFill=0;" edge="1" parent="1" source="BXB8UgXBpc2WrxSVJNMK-1" target="BXB8UgXBpc2WrxSVJNMK-8">
          <mxGeometry width="50" height="50" relative="1" as="geometry">
            <mxPoint x="270" y="540" as="sourcePoint" />
            <mxPoint x="320" y="490" as="targetPoint" />
          </mxGeometry>
        </mxCell>
        <mxCell id="BXB8UgXBpc2WrxSVJNMK-12" value="" style="endArrow=none;html=1;rounded=1;entryX=0;entryY=0.5;entryDx=0;entryDy=0;exitX=0.5;exitY=0.5;exitDx=0;exitDy=0;exitPerimeter=0;endFill=0;" edge="1" parent="1" source="BXB8UgXBpc2WrxSVJNMK-1" target="BXB8UgXBpc2WrxSVJNMK-9">
          <mxGeometry width="50" height="50" relative="1" as="geometry">
            <mxPoint x="210" y="520" as="sourcePoint" />
            <mxPoint x="495" y="450" as="targetPoint" />
          </mxGeometry>
        </mxCell>
        <mxCell id="BXB8UgXBpc2WrxSVJNMK-13" value="" style="endArrow=none;html=1;rounded=1;exitX=0.5;exitY=0.5;exitDx=0;exitDy=0;exitPerimeter=0;entryX=0;entryY=0.5;entryDx=0;entryDy=0;endFill=0;" edge="1" parent="1" source="BXB8UgXBpc2WrxSVJNMK-2" target="BXB8UgXBpc2WrxSVJNMK-8">
          <mxGeometry width="50" height="50" relative="1" as="geometry">
            <mxPoint x="175" y="410" as="sourcePoint" />
            <mxPoint x="430" y="340" as="targetPoint" />
          </mxGeometry>
        </mxCell>
        <mxCell id="BXB8UgXBpc2WrxSVJNMK-15" value="" style="endArrow=none;html=1;rounded=1;exitX=0.5;exitY=0.5;exitDx=0;exitDy=0;exitPerimeter=0;entryX=0;entryY=0.5;entryDx=0;entryDy=0;endFill=0;" edge="1" parent="1" source="BXB8UgXBpc2WrxSVJNMK-2" target="BXB8UgXBpc2WrxSVJNMK-9">
          <mxGeometry width="50" height="50" relative="1" as="geometry">
            <mxPoint x="175" y="620" as="sourcePoint" />
            <mxPoint x="460" y="340" as="targetPoint" />
          </mxGeometry>
        </mxCell>
        <mxCell id="BXB8UgXBpc2WrxSVJNMK-27" value="" style="endArrow=none;html=1;rounded=1;exitX=0.5;exitY=0.5;exitDx=0;exitDy=0;exitPerimeter=0;entryX=0;entryY=0.5;entryDx=0;entryDy=0;endFill=0;" edge="1" parent="1" source="BXB8UgXBpc2WrxSVJNMK-2" target="BXB8UgXBpc2WrxSVJNMK-21">
          <mxGeometry width="50" height="50" relative="1" as="geometry">
            <mxPoint x="175" y="840" as="sourcePoint" />
            <mxPoint x="405" y="806" as="targetPoint" />
          </mxGeometry>
        </mxCell>
        <mxCell id="BXB8UgXBpc2WrxSVJNMK-28" value="" style="group" vertex="1" connectable="0" parent="1">
          <mxGeometry x="450" y="770" width="230" height="155.97000000000003" as="geometry" />
        </mxCell>
        <mxCell id="BXB8UgXBpc2WrxSVJNMK-18" value="Create&lt;div&gt;&amp;nbsp;&lt;span style=&quot;font-family: Arial;&quot;&gt;Appointment&lt;/span&gt;&lt;/div&gt;" style="ellipse;whiteSpace=wrap;html=1;" vertex="1" parent="BXB8UgXBpc2WrxSVJNMK-28">
          <mxGeometry x="70" width="90" height="60" as="geometry" />
        </mxCell>
        <mxCell id="BXB8UgXBpc2WrxSVJNMK-21" value="create&lt;div&gt;&lt;span style=&quot;font-family: Arial;&quot;&gt;Appointment&lt;/span&gt;&lt;/div&gt;" style="ellipse;whiteSpace=wrap;html=1;" vertex="1" parent="BXB8UgXBpc2WrxSVJNMK-28">
          <mxGeometry y="95.97000000000003" width="90" height="60" as="geometry" />
        </mxCell>
        <mxCell id="BXB8UgXBpc2WrxSVJNMK-22" value="&lt;p dir=&quot;ltr&quot;&gt;&lt;span style=&quot;font-size: 9pt; font-family: Arial;&quot;&gt;Request&lt;/span&gt;&lt;/p&gt;&lt;p dir=&quot;ltr&quot;&gt;&lt;span style=&quot;font-size: 9pt; font-family: Arial;&quot;&gt;Appointment&lt;/span&gt;&lt;/p&gt;" style="ellipse;whiteSpace=wrap;html=1;" vertex="1" parent="BXB8UgXBpc2WrxSVJNMK-28">
          <mxGeometry x="140" y="95.97000000000003" width="90" height="60" as="geometry" />
        </mxCell>
        <mxCell id="BXB8UgXBpc2WrxSVJNMK-23" value="extends" style="endArrow=classic;html=1;rounded=1;exitX=0.5;exitY=0;exitDx=0;exitDy=0;endFill=1;entryX=0.5;entryY=1;entryDx=0;entryDy=0;edgeStyle=orthogonalEdgeStyle;" edge="1" parent="BXB8UgXBpc2WrxSVJNMK-28" source="BXB8UgXBpc2WrxSVJNMK-21" target="BXB8UgXBpc2WrxSVJNMK-18">
          <mxGeometry width="50" height="50" relative="1" as="geometry">
            <mxPoint x="-205" y="170" as="sourcePoint" />
            <mxPoint x="110" y="70" as="targetPoint" />
          </mxGeometry>
        </mxCell>
        <mxCell id="BXB8UgXBpc2WrxSVJNMK-24" value="" style="endArrow=none;html=1;rounded=1;exitX=0.5;exitY=1;exitDx=0;exitDy=0;endFill=0;entryX=0.5;entryY=0;entryDx=0;entryDy=0;edgeStyle=orthogonalEdgeStyle;startArrow=classic;startFill=1;" edge="1" parent="BXB8UgXBpc2WrxSVJNMK-28" source="BXB8UgXBpc2WrxSVJNMK-18" target="BXB8UgXBpc2WrxSVJNMK-22">
          <mxGeometry width="50" height="50" relative="1" as="geometry">
            <mxPoint x="70" y="100" as="sourcePoint" />
            <mxPoint x="120" y="80" as="targetPoint" />
          </mxGeometry>
        </mxCell>
        <mxCell id="BXB8UgXBpc2WrxSVJNMK-25" value="extends" style="edgeLabel;html=1;align=center;verticalAlign=middle;resizable=0;points=[];" vertex="1" connectable="0" parent="BXB8UgXBpc2WrxSVJNMK-24">
          <mxGeometry x="0.1875" y="1" relative="1" as="geometry">
            <mxPoint x="-3" as="offset" />
          </mxGeometry>
        </mxCell>
        <mxCell id="BXB8UgXBpc2WrxSVJNMK-29" value="witing room managment&amp;nbsp;" style="ellipse;whiteSpace=wrap;html=1;" vertex="1" parent="1">
          <mxGeometry x="450" y="610" width="90" height="60" as="geometry" />
        </mxCell>
        <mxCell id="BXB8UgXBpc2WrxSVJNMK-30" value="" style="endArrow=none;html=1;rounded=1;entryX=0;entryY=0.5;entryDx=0;entryDy=0;endFill=0;exitX=0.5;exitY=0.5;exitDx=0;exitDy=0;exitPerimeter=0;" edge="1" parent="1" source="BXB8UgXBpc2WrxSVJNMK-2" target="BXB8UgXBpc2WrxSVJNMK-29">
          <mxGeometry width="50" height="50" relative="1" as="geometry">
            <mxPoint x="230" y="610" as="sourcePoint" />
            <mxPoint x="460" y="720" as="targetPoint" />
          </mxGeometry>
        </mxCell>
        <mxCell id="BXB8UgXBpc2WrxSVJNMK-31" value="manage patiant&amp;nbsp;&lt;div&gt;profiles&lt;/div&gt;" style="ellipse;whiteSpace=wrap;html=1;" vertex="1" parent="1">
          <mxGeometry x="450" y="340" width="90" height="60" as="geometry" />
        </mxCell>
        <mxCell id="BXB8UgXBpc2WrxSVJNMK-32" value="" style="endArrow=none;html=1;rounded=1;entryX=0.5;entryY=0.5;entryDx=0;entryDy=0;endFill=0;entryPerimeter=0;exitX=1;exitY=0.5;exitDx=0;exitDy=0;" edge="1" parent="1" source="BXB8UgXBpc2WrxSVJNMK-22" target="BXB8UgXBpc2WrxSVJNMK-7">
          <mxGeometry width="50" height="50" relative="1" as="geometry">
            <mxPoint x="220" y="860" as="sourcePoint" />
            <mxPoint x="530" y="816" as="targetPoint" />
          </mxGeometry>
        </mxCell>
        <mxCell id="BXB8UgXBpc2WrxSVJNMK-35" value="" style="endArrow=none;html=1;rounded=1;entryX=0;entryY=0.5;entryDx=0;entryDy=0;exitX=0.5;exitY=0.5;exitDx=0;exitDy=0;exitPerimeter=0;endFill=0;" edge="1" parent="1" source="BXB8UgXBpc2WrxSVJNMK-1" target="BXB8UgXBpc2WrxSVJNMK-31">
          <mxGeometry width="50" height="50" relative="1" as="geometry">
            <mxPoint x="220" y="490" as="sourcePoint" />
            <mxPoint x="505" y="420" as="targetPoint" />
          </mxGeometry>
        </mxCell>
        <mxCell id="BXB8UgXBpc2WrxSVJNMK-36" value="" style="endArrow=none;html=1;rounded=1;exitX=0.5;exitY=0.5;exitDx=0;exitDy=0;exitPerimeter=0;entryX=0;entryY=0.5;entryDx=0;entryDy=0;endFill=0;" edge="1" parent="1" source="BXB8UgXBpc2WrxSVJNMK-1" target="BXB8UgXBpc2WrxSVJNMK-34">
          <mxGeometry width="50" height="50" relative="1" as="geometry">
            <mxPoint x="175" y="620" as="sourcePoint" />
            <mxPoint x="460" y="340" as="targetPoint" />
          </mxGeometry>
        </mxCell>
        <mxCell id="BXB8UgXBpc2WrxSVJNMK-37" value="&lt;p dir=&quot;ltr&quot;&gt;view&amp;nbsp;&lt;span style=&quot;background-color: transparent; color: light-dark(rgb(0, 0, 0), rgb(255, 255, 255));&quot;&gt;Medical&amp;nbsp;&lt;/span&gt;&lt;/p&gt;&lt;p dir=&quot;ltr&quot;&gt;&lt;span style=&quot;background-color: transparent; color: light-dark(rgb(0, 0, 0), rgb(255, 255, 255));&quot;&gt;bill&lt;/span&gt;&lt;/p&gt;" style="ellipse;whiteSpace=wrap;html=1;" vertex="1" parent="1">
          <mxGeometry x="760" y="750" width="90" height="60" as="geometry" />
        </mxCell>
        <mxCell id="BXB8UgXBpc2WrxSVJNMK-40" value="&lt;div&gt;Track &amp;amp; Update&lt;/div&gt;&lt;div&gt;&amp;nbsp;Patient Visit&lt;/div&gt;" style="ellipse;whiteSpace=wrap;html=1;" vertex="1" parent="1">
          <mxGeometry x="640" y="290" width="90" height="60" as="geometry" />
        </mxCell>
        <mxCell id="BXB8UgXBpc2WrxSVJNMK-41" value="" style="endArrow=none;html=1;rounded=1;entryX=0;entryY=0.5;entryDx=0;entryDy=0;exitX=1;exitY=0.5;exitDx=0;exitDy=0;endFill=0;dashed=1;startArrow=block;startFill=0;" edge="1" parent="1" source="BXB8UgXBpc2WrxSVJNMK-31" target="BXB8UgXBpc2WrxSVJNMK-40">
          <mxGeometry width="50" height="50" relative="1" as="geometry">
            <mxPoint x="620" y="430" as="sourcePoint" />
            <mxPoint x="905" y="400" as="targetPoint" />
          </mxGeometry>
        </mxCell>
        <mxCell id="BXB8UgXBpc2WrxSVJNMK-42" value="includs" style="edgeLabel;html=1;align=center;verticalAlign=middle;resizable=0;points=[];" vertex="1" connectable="0" parent="BXB8UgXBpc2WrxSVJNMK-41">
          <mxGeometry x="-0.0481" y="2" relative="1" as="geometry">
            <mxPoint as="offset" />
          </mxGeometry>
        </mxCell>
        <mxCell id="BXB8UgXBpc2WrxSVJNMK-46" value="&lt;div&gt;&lt;span style=&quot;font-family: Arial; font-size: 11px;&quot;&gt;Patient Prescriptions&lt;/span&gt;&lt;/div&gt;" style="ellipse;whiteSpace=wrap;html=1;" vertex="1" parent="1">
          <mxGeometry x="650" y="470" width="90" height="60" as="geometry" />
        </mxCell>
        <mxCell id="BXB8UgXBpc2WrxSVJNMK-47" value="" style="endArrow=none;html=1;rounded=1;entryX=0;entryY=0.5;entryDx=0;entryDy=0;exitX=1;exitY=0.5;exitDx=0;exitDy=0;endFill=0;dashed=1;startArrow=block;startFill=0;" edge="1" parent="1" target="BXB8UgXBpc2WrxSVJNMK-46" source="BXB8UgXBpc2WrxSVJNMK-34">
          <mxGeometry width="50" height="50" relative="1" as="geometry">
            <mxPoint x="560" y="460" as="sourcePoint" />
            <mxPoint x="925" y="490" as="targetPoint" />
          </mxGeometry>
        </mxCell>
        <mxCell id="BXB8UgXBpc2WrxSVJNMK-48" value="includs" style="edgeLabel;html=1;align=center;verticalAlign=middle;resizable=0;points=[];" vertex="1" connectable="0" parent="BXB8UgXBpc2WrxSVJNMK-47">
          <mxGeometry x="-0.0481" y="2" relative="1" as="geometry">
            <mxPoint as="offset" />
          </mxGeometry>
        </mxCell>
        <mxCell id="BXB8UgXBpc2WrxSVJNMK-51" value="&lt;div&gt;add new pariant&lt;/div&gt;" style="ellipse;whiteSpace=wrap;html=1;" vertex="1" parent="1">
          <mxGeometry x="640" y="360" width="90" height="60" as="geometry" />
        </mxCell>
        <mxCell id="BXB8UgXBpc2WrxSVJNMK-52" value="" style="endArrow=none;html=1;rounded=1;entryX=0;entryY=0.5;entryDx=0;entryDy=0;exitX=1;exitY=0.5;exitDx=0;exitDy=0;endFill=0;dashed=1;startArrow=block;startFill=0;" edge="1" parent="1" target="BXB8UgXBpc2WrxSVJNMK-51" source="BXB8UgXBpc2WrxSVJNMK-31">
          <mxGeometry width="50" height="50" relative="1" as="geometry">
            <mxPoint x="590" y="430" as="sourcePoint" />
            <mxPoint x="955" y="460" as="targetPoint" />
          </mxGeometry>
        </mxCell>
        <mxCell id="BXB8UgXBpc2WrxSVJNMK-53" value="includs" style="edgeLabel;html=1;align=center;verticalAlign=middle;resizable=0;points=[];" vertex="1" connectable="0" parent="BXB8UgXBpc2WrxSVJNMK-52">
          <mxGeometry x="-0.0481" y="2" relative="1" as="geometry">
            <mxPoint as="offset" />
          </mxGeometry>
        </mxCell>
        <mxCell id="BXB8UgXBpc2WrxSVJNMK-54" value="" style="endArrow=none;html=1;rounded=1;endFill=0;exitX=0.5;exitY=0.5;exitDx=0;exitDy=0;exitPerimeter=0;" edge="1" parent="1" source="BXB8UgXBpc2WrxSVJNMK-2">
          <mxGeometry width="50" height="50" relative="1" as="geometry">
            <mxPoint x="230" y="560" as="sourcePoint" />
            <mxPoint x="640" y="390" as="targetPoint" />
          </mxGeometry>
        </mxCell>
        <mxCell id="BXB8UgXBpc2WrxSVJNMK-34" value="&lt;p dir=&quot;ltr&quot;&gt;&lt;span style=&quot;font-family: Arial; font-size: 11px; background-color: transparent; color: light-dark(rgb(0, 0, 0), rgb(255, 255, 255));&quot;&gt;Manage&amp;nbsp;&lt;/span&gt;&lt;span style=&quot;font-size: 11px; background-color: transparent; color: light-dark(rgb(0, 0, 0), rgb(255, 255, 255)); font-family: Arial;&quot;&gt;Diagnosis &amp;amp; Procedure&lt;/span&gt;&lt;/p&gt;" style="ellipse;whiteSpace=wrap;html=1;horizontal=1;" vertex="1" parent="1">
          <mxGeometry x="450" y="410" width="90" height="60" as="geometry" />
        </mxCell>
        <mxCell id="BXB8UgXBpc2WrxSVJNMK-55" value="&lt;span style=&quot;font-family: Arial;&quot;&gt;Appointment&lt;/span&gt;&lt;div&gt;&amp;nbsp;Managment&lt;/div&gt;" style="ellipse;whiteSpace=wrap;html=1;" vertex="1" parent="1">
          <mxGeometry x="450" y="690" width="90" height="60" as="geometry" />
        </mxCell>
        <mxCell id="BXB8UgXBpc2WrxSVJNMK-56" value="" style="endArrow=none;html=1;rounded=1;entryX=0;entryY=0.5;entryDx=0;entryDy=0;endFill=0;exitX=0.5;exitY=0.5;exitDx=0;exitDy=0;exitPerimeter=0;" edge="1" parent="1" source="BXB8UgXBpc2WrxSVJNMK-2" target="BXB8UgXBpc2WrxSVJNMK-55">
          <mxGeometry width="50" height="50" relative="1" as="geometry">
            <mxPoint x="175" y="620" as="sourcePoint" />
            <mxPoint x="460" y="650" as="targetPoint" />
          </mxGeometry>
        </mxCell>
        <mxCell id="BXB8UgXBpc2WrxSVJNMK-58" value="" style="endArrow=none;html=1;rounded=1;entryX=1;entryY=0.5;entryDx=0;entryDy=0;exitX=0.5;exitY=0;exitDx=0;exitDy=0;endFill=0;dashed=1;startArrow=block;startFill=0;" edge="1" parent="1" source="BXB8UgXBpc2WrxSVJNMK-18" target="BXB8UgXBpc2WrxSVJNMK-55">
          <mxGeometry width="50" height="50" relative="1" as="geometry">
            <mxPoint x="570" y="630" as="sourcePoint" />
            <mxPoint x="710" y="690" as="targetPoint" />
          </mxGeometry>
        </mxCell>
        <mxCell id="BXB8UgXBpc2WrxSVJNMK-59" value="includs" style="edgeLabel;html=1;align=center;verticalAlign=middle;resizable=0;points=[];" vertex="1" connectable="0" parent="BXB8UgXBpc2WrxSVJNMK-58">
          <mxGeometry x="-0.0481" y="2" relative="1" as="geometry">
            <mxPoint as="offset" />
          </mxGeometry>
        </mxCell>
        <mxCell id="BXB8UgXBpc2WrxSVJNMK-67" value="&lt;p dir=&quot;ltr&quot;&gt;&lt;br&gt;&lt;/p&gt;" style="ellipse;whiteSpace=wrap;html=1;" vertex="1" parent="1">
          <mxGeometry x="460" y="490" width="90" height="60" as="geometry" />
        </mxCell>
        <mxCell id="BXB8UgXBpc2WrxSVJNMK-68" value="" style="endArrow=none;html=1;rounded=1;endFill=0;exitX=1;exitY=0.5;exitDx=0;exitDy=0;entryX=0.5;entryY=0.5;entryDx=0;entryDy=0;entryPerimeter=0;" edge="1" parent="1" source="BXB8UgXBpc2WrxSVJNMK-37" target="BXB8UgXBpc2WrxSVJNMK-7">
          <mxGeometry width="50" height="50" relative="1" as="geometry">
            <mxPoint x="890" y="896" as="sourcePoint" />
            <mxPoint x="960" y="810" as="targetPoint" />
          </mxGeometry>
        </mxCell>
      </root>
    </mxGraphModel>
  </diagram>
</mxfile>
